<svg width="219.000000" height="94.000000" viewBox="0 0 219 94" fill="none" xmlns="http://www.w3.org/2000/svg" xmlns:xlink="http://www.w3.org/1999/xlink">
	<desc>
			Created with Pixso.
	</desc>
	<defs>
		<clipPath id="clip23_31891">
			<rect id="Logo" width="94.208336" height="34.000000" transform="translate(61.681641 30.000000)" fill="white" fill-opacity="0"/>
		</clipPath>
		<clipPath id="clip23_31890">
			<rect id="Card" width="219.285721" height="94.000000" transform="translate(-0.857422 0.000000)" fill="white" fill-opacity="0"/>
		</clipPath>
	</defs>
	<g clip-path="url(#clip23_31890)">
		<rect id="Logo" width="94.208336" height="34.000000" transform="translate(61.681641 30.000000)" fill="#FFFFFF" fill-opacity="0"/>
		<g clip-path="url(#clip23_31891)">
			<path id="Vector" d="M72.04 34.25L61.68 34.25L61.68 59.04L72.04 34.25Z" fill="#4C4C4D" fill-opacity="1.000000" fill-rule="nonzero"/>
			<path id="Vector" d="M79.34 34.25L89.69 34.25L89.69 59.04L79.34 34.25Z" fill="#4C4C4D" fill-opacity="1.000000" fill-rule="nonzero"/>
			<path id="Vector" d="M75.69 43.38L82.29 59.04L77.96 59.04L75.99 54.05L71.16 54.05L75.69 43.38Z" fill="#4C4C4D" fill-opacity="1.000000" fill-rule="nonzero"/>
			<path id="Vector" d="M106.6 50.01L107.83 53.51C107.87 53.6 107.93 53.64 108.03 53.64L110.39 53.64C110.51 53.64 110.53 53.58 110.51 53.45L105.66 39.97C105.64 39.86 105.62 39.84 105.51 39.84L102.59 39.84C102.51 39.84 102.46 39.9 102.46 39.99C102.42 40.7 102.36 40.91 102.27 41.12L97.95 53.43C97.92 53.58 97.97 53.64 98.09 53.64L100.19 53.64C100.32 53.64 100.38 53.6 100.43 53.47L101.59 50.01L106.6 50.01ZM102.25 47.72C102.89 45.8 103.73 43.34 104.06 41.94L104.08 41.94C104.5 43.41 105.49 46.33 105.93 47.72L102.25 47.72Z" fill="#4C4C4D" fill-opacity="1.000000" fill-rule="nonzero"/>
			<path id="Vector" d="M116.76 53.85C118.02 53.85 119.36 53.62 120.73 53.03C120.84 52.99 120.85 52.95 120.85 52.85C120.81 52.47 120.77 51.92 120.77 51.5L120.77 38.81C120.77 38.72 120.77 38.68 120.67 38.68L118.38 38.68C118.29 38.68 118.25 38.72 118.25 38.83L118.25 43.13C117.89 43.09 117.64 43.07 117.34 43.07C113.65 43.07 111.38 45.51 111.38 48.56C111.38 52.09 113.71 53.85 116.76 53.85ZM118.25 51.5C117.87 51.62 117.45 51.67 117.03 51.67C115.35 51.67 113.98 50.72 113.98 48.43C113.98 46.4 115.39 45.19 117.26 45.19C117.64 45.19 117.97 45.23 118.25 45.34L118.25 51.5Z" fill="#4C4C4D" fill-opacity="1.000000" fill-rule="nonzero"/>
			<path id="Vector" d="M128.16 43.07C125 43.07 123.05 45.49 123.05 48.48C123.05 51.14 124.6 53.85 128.11 53.85C131.07 53.85 133.15 51.67 133.15 48.41C133.15 45.53 131.39 43.07 128.16 43.07ZM128.03 45.19C129.81 45.19 130.57 46.73 130.57 48.48C130.57 50.64 129.45 51.71 128.16 51.71C126.56 51.71 125.61 50.37 125.61 48.43C125.61 46.44 126.62 45.19 128.03 45.19Z" fill="#4C4C4D" fill-opacity="1.000000" fill-rule="nonzero"/>
			<path id="Vector" d="M135.52 38.68C135.43 38.68 135.37 38.72 135.37 38.83L135.37 53.2C135.37 53.26 135.43 53.37 135.52 53.39C136.53 53.7 137.58 53.85 138.67 53.85C141.78 53.85 144.81 51.92 144.81 48.03C144.81 45.21 142.88 43.07 139.85 43.07C139.16 43.07 138.51 43.18 137.94 43.37L137.91 38.85C137.91 38.7 137.87 38.68 137.72 38.68L135.52 38.68ZM142.22 48.29C142.22 50.62 140.63 51.71 138.91 51.71C138.55 51.71 138.23 51.69 137.94 51.6L137.94 45.47C138.27 45.34 138.67 45.23 139.41 45.23C141.07 45.23 142.22 46.29 142.22 48.29Z" fill="#4C4C4D" fill-opacity="1.000000" fill-rule="nonzero"/>
			<path id="Vector" d="M153.35 49.04C154.38 49.04 155.22 49.02 155.51 48.96C155.62 48.94 155.66 48.9 155.68 48.81C155.74 48.58 155.77 48.1 155.77 47.51C155.77 45.51 154.57 43.07 151.46 43.07C148.29 43.07 146.52 45.66 146.52 48.58C146.52 51.16 147.89 53.85 151.71 53.85C153.14 53.85 154.07 53.62 154.87 53.24C154.95 53.2 154.99 53.14 154.99 53.02L154.99 51.27C154.99 51.16 154.93 51.14 154.87 51.19C154.07 51.52 153.2 51.69 152.26 51.69C150.12 51.69 149.14 50.51 149.08 49.04L153.35 49.04ZM149.08 47.23C149.25 46.21 149.9 45.09 151.35 45.09C152.95 45.09 153.37 46.44 153.37 47.05C153.37 47.07 153.37 47.15 153.37 47.21C153.28 47.23 153.02 47.23 152.22 47.23L149.08 47.23Z" fill="#4C4C4D" fill-opacity="1.000000" fill-rule="nonzero"/>
		</g>
	</g>
</svg>
