<svg width="219.000000" height="94.000000" viewBox="0 0 219 94" fill="none" xmlns="http://www.w3.org/2000/svg" xmlns:xlink="http://www.w3.org/1999/xlink">
	<desc>
			Created with Pixso.
	</desc>
	<defs>
		<clipPath id="clip23_31918">
			<rect id="Logo" width="91.375000" height="34.000000" transform="translate(63.383789 30.000000)" fill="white" fill-opacity="0"/>
		</clipPath>
		<clipPath id="clip23_31910">
			<rect id="Card" width="219.285721" height="94.000000" transform="translate(-0.571289 0.000000)" fill="white" fill-opacity="0"/>
		</clipPath>
	</defs>
	<g clip-path="url(#clip23_31910)">
		<rect id="Logo" width="91.375000" height="34.000000" transform="translate(63.383789 30.000000)" fill="#FFFFFF" fill-opacity="0"/>
		<g clip-path="url(#clip23_31918)">
			<path id="Vector" d="M78.43 34.3L64.86 35.29C63.77 35.39 63.38 36.09 63.38 36.95L63.38 51.75C63.38 52.41 63.62 52.98 64.19 53.74L67.39 57.88C67.91 58.54 68.38 58.69 69.39 58.64L85.14 57.68C86.47 57.58 86.84 56.97 86.84 55.93L86.84 39.28C86.84 38.71 86.6 38.57 85.88 38.05L81.56 35.02C80.52 34.25 80.08 34.16 78.43 34.3ZM69.72 39C68.44 39.09 68.16 39.11 67.43 38.52L65.57 37.06C65.38 36.88 65.48 36.64 65.95 36.59L78.98 35.63C80.07 35.53 80.65 35.92 81.08 36.25L83.32 37.85C83.41 37.89 83.66 38.18 83.37 38.18L69.9 38.99C69.83 38.99 69.78 39 69.72 39ZM130.24 39.69C130.24 40.55 129.53 41.25 128.67 41.25C127.8 41.25 127.09 40.55 127.09 39.69C127.09 38.81 127.8 38.11 128.67 38.11C129.53 38.11 130.24 38.81 130.24 39.69ZM95.21 44.32L95.21 54.63L92.58 54.63L92.58 39.49L94.95 39.49L102.45 49.77L102.64 49.77L102.64 39.49L105.26 39.49L105.26 54.63L102.9 54.63L95.39 44.32L95.21 44.32ZM68.24 55.79L68.24 41.65C68.24 41.03 68.43 40.74 69 40.69L84.47 39.78C84.99 39.73 85.24 40.07 85.24 40.69L85.24 54.73C85.24 55.35 85.14 55.87 84.28 55.91L69.47 56.77C68.61 56.82 68.24 56.55 68.24 55.79ZM120.66 43.23L120.66 40.34L123.29 40.34L123.29 43.23L125.78 43.23L125.78 45.3L123.29 45.3L123.29 50.94C123.29 52.08 123.78 52.58 124.89 52.58C125.25 52.58 125.46 52.55 125.78 52.52L125.78 54.55C125.39 54.63 124.89 54.68 124.39 54.68C121.71 54.68 120.66 53.8 120.66 51.56L120.66 45.3L118.83 45.3L118.83 43.23L120.66 43.23ZM82.42 43.32C82.85 43.27 82.94 42.83 82.85 42.41L79.58 42.59C79.11 42.64 78.72 43.03 78.82 43.54L80.05 43.69L80.05 50.22L75.19 42.83L71.67 43.07C71 43.12 70.76 43.74 70.85 44.16L72.04 44.26L72.04 53.6L71.18 53.84C70.85 53.94 70.76 54.41 70.85 54.6L74.14 54.41C75.32 54.41 75.32 53.55 75.32 53.55L73.84 53.22L73.84 46.15L78.51 53.47C79.08 54.18 79.27 54.42 80.04 54.42C80.52 54.42 81.09 54.23 81.71 53.9L81.71 43.46L82.42 43.32ZM118.27 48.89C118.27 52.63 116.15 54.86 112.68 54.86C109.22 54.86 107.12 52.63 107.1 48.89C107.1 45.17 109.25 42.91 112.68 42.91C116.15 42.91 118.27 45.17 118.27 48.89ZM142.76 48.89C142.76 52.63 140.63 54.86 137.17 54.86C133.68 54.86 131.58 52.63 131.58 48.89C131.58 45.17 133.73 42.91 137.17 42.91C140.63 42.91 142.76 45.17 142.76 48.89ZM146.93 54.63L144.3 54.63C144.3 54.63 144.3 43.15 144.28 43.15L146.82 43.15L146.82 44.99L147.01 44.99C147.56 43.69 148.71 42.91 150.44 42.91C153.02 42.91 154.43 44.45 154.43 47.2L154.43 54.63L151.81 54.63L151.81 47.82C151.81 46.08 151.07 45.2 149.47 45.2C147.92 45.2 146.93 46.26 146.93 47.95L146.93 54.63ZM129.98 54.63L127.35 54.63L127.35 43.15L129.98 43.15L129.98 54.63ZM109.8 48.89C109.8 51.3 110.85 52.68 112.68 52.68C114.52 52.68 115.57 51.3 115.57 48.89C115.57 46.5 114.52 45.1 112.68 45.1C110.85 45.1 109.8 46.5 109.8 48.89ZM134.28 48.89C134.28 51.3 135.33 52.68 137.17 52.68C138.98 52.68 140.03 51.3 140.05 48.89C140.05 46.5 138.98 45.1 137.17 45.1C135.33 45.1 134.28 46.5 134.28 48.89Z" fill="#4C4C4D" fill-opacity="1.000000" fill-rule="evenodd"/>
		</g>
	</g>
</svg>
