<svg width="219.000000" height="94.000000" viewBox="0 0 219 94" fill="none" xmlns="http://www.w3.org/2000/svg" xmlns:xlink="http://www.w3.org/1999/xlink">
	<desc>
			Created with Pixso.
	</desc>
	<defs>
		<clipPath id="clip23_31884">
			<rect id="Logo" width="69.416641" height="34.000000" transform="translate(74.505859 30.000000)" fill="white" fill-opacity="0"/>
		</clipPath>
		<clipPath id="clip23_31883">
			<rect id="Card" width="219.285721" height="94.000000" transform="translate(-0.428711 0.000000)" fill="white" fill-opacity="0"/>
		</clipPath>
	</defs>
	<g clip-path="url(#clip23_31883)">
		<rect id="Logo" width="69.416641" height="34.000000" transform="translate(74.505859 30.000000)" fill="#FFFFFF" fill-opacity="0"/>
		<g clip-path="url(#clip23_31884)">
			<path id="Vector" d="M130.96 44.59C131.23 45.04 131.31 45.56 131.34 46.15L131.38 46.93L131.38 52.38L131.42 53.16C131.49 54.44 132.43 55.38 133.72 55.46L134.49 55.5L134.49 46.93L134.53 46.15C134.56 45.57 134.65 45.04 134.92 44.58C135.19 44.11 135.59 43.72 136.06 43.44C136.53 43.17 137.07 43.03 137.62 43.03C138.17 43.03 138.7 43.18 139.17 43.45C139.65 43.72 140.04 44.12 140.31 44.59C140.58 45.05 140.66 45.58 140.69 46.15L140.73 46.93L140.73 52.38L140.77 53.16C140.85 54.44 141.78 55.38 143.07 55.46L143.85 55.5L143.85 46.15C143.85 44.5 143.19 42.91 142.02 41.74C140.85 40.57 139.27 39.92 137.61 39.92C136.73 39.91 135.85 40.1 135.05 40.47C134.24 40.83 133.52 41.36 132.94 42.03C132.35 41.36 131.64 40.83 130.83 40.47C130.02 40.1 129.15 39.91 128.26 39.91C126.97 39.91 125.77 40.31 124.77 40.99C124.17 40.31 122.81 39.91 122.03 39.91L122.03 55.5L122.81 55.46C124.11 55.37 125.06 54.46 125.11 53.16L125.15 52.38L125.15 46.93L125.19 46.15C125.22 45.56 125.3 45.04 125.57 44.58C125.84 44.11 126.23 43.72 126.71 43.45C127.18 43.17 127.72 43.03 128.26 43.03C128.81 43.03 129.35 43.17 129.82 43.45C130.29 43.72 130.69 44.11 130.96 44.59ZM77.62 55.46L78.4 55.5L90.08 55.5L90.04 54.72C89.94 53.44 89.03 52.5 87.75 52.42L86.97 52.38L79.96 52.38L89.3 43.03L89.27 42.25C89.21 40.96 88.26 40.02 86.97 39.95L86.19 39.92L74.5 39.91L74.54 40.69C74.64 41.96 75.56 42.92 76.84 42.99L77.62 43.03L84.63 43.03L75.28 52.38L75.32 53.16C75.4 54.45 76.32 55.38 77.62 55.46L77.62 55.46ZM118.97 42.2C119.69 42.92 120.27 43.78 120.66 44.72C121.05 45.67 121.25 46.68 121.25 47.7C121.25 48.73 121.05 49.74 120.66 50.69C120.27 51.63 119.69 52.49 118.97 53.21C117.51 54.68 115.53 55.5 113.46 55.5C111.39 55.5 109.41 54.68 107.95 53.21C104.91 50.17 104.91 45.24 107.95 42.2C108.67 41.47 109.53 40.9 110.47 40.51C111.42 40.12 112.43 39.91 113.45 39.91C114.48 39.91 115.49 40.11 116.44 40.51C117.39 40.9 118.25 41.47 118.97 42.2L118.97 42.2ZM116.77 44.4C117.64 45.28 118.13 46.47 118.13 47.71C118.13 48.95 117.64 50.14 116.77 51.01C115.89 51.89 114.7 52.38 113.46 52.38C112.22 52.38 111.03 51.89 110.15 51.01C109.28 50.14 108.78 48.95 108.78 47.71C108.78 46.47 109.28 45.28 110.15 44.4C111.03 43.53 112.22 43.03 113.46 43.03C114.7 43.03 115.89 43.53 116.77 44.4ZM97.1 39.91C98.12 39.91 99.14 40.12 100.08 40.51C101.03 40.9 101.88 41.47 102.61 42.2C105.65 45.24 105.65 50.17 102.61 53.21C101.15 54.68 99.16 55.5 97.1 55.5C95.03 55.5 93.05 54.68 91.59 53.21C88.54 50.17 88.54 45.24 91.59 42.2C92.31 41.47 93.17 40.9 94.11 40.51C95.06 40.12 96.07 39.91 97.09 39.91L97.1 39.91ZM100.4 44.4C101.28 45.28 101.77 46.47 101.77 47.71C101.77 48.95 101.28 50.14 100.4 51.01C99.53 51.89 98.34 52.38 97.1 52.38C95.86 52.38 94.67 51.89 93.79 51.01C92.91 50.14 92.42 48.95 92.42 47.71C92.42 46.47 92.91 45.28 93.79 44.4C94.67 43.52 95.86 43.03 97.1 43.03C98.34 43.03 99.53 43.52 100.4 44.4L100.4 44.4Z" fill="#4C4C4D" fill-opacity="1.000000" fill-rule="evenodd"/>
		</g>
	</g>
</svg>
