<svg width="220.000000" height="94.000000" viewBox="0 0 220 94" fill="none" xmlns="http://www.w3.org/2000/svg" xmlns:xlink="http://www.w3.org/1999/xlink">
	<desc>
			Created with Pixso.
	</desc>
	<defs>
		<clipPath id="clip23_31887">
			<rect id="Logo" width="77.916641" height="34.000000" transform="translate(70.541992 30.000000)" fill="white" fill-opacity="0"/>
		</clipPath>
		<clipPath id="clip23_31886">
			<rect id="Card" width="219.285721" height="94.000000" transform="translate(-0.142578 0.000000)" fill="white" fill-opacity="0"/>
		</clipPath>
	</defs>
	<g clip-path="url(#clip23_31886)">
		<rect id="Logo" width="77.916641" height="34.000000" transform="translate(70.541992 30.000000)" fill="#FFFFFF" fill-opacity="0"/>
		<g clip-path="url(#clip23_31887)">
			<path id="Vector" d="M115.3 54.45C116.76 54.28 119.96 53.9 120.53 54.63C121.11 55.37 119.89 58.41 119.35 59.77L119.35 59.77C119.18 60.18 119.53 60.35 119.91 60.04C122.33 58.01 122.95 53.78 122.45 53.16C121.96 52.56 117.73 52.03 115.16 53.85C114.76 54.12 114.83 54.51 115.27 54.45L115.3 54.45ZM101.99 61.87C107.62 61.87 114.15 60.1 118.66 56.77C119.4 56.22 118.76 55.4 118 55.72C112.95 57.86 107.46 58.9 102.46 58.9C95.06 58.9 87.89 56.87 82.09 53.5C81.59 53.2 81.21 53.72 81.63 54.1C87 58.95 94.1 61.87 101.99 61.87Z" fill="#4C4C4D" fill-opacity="1.000000" fill-rule="evenodd"/>
			<path id="Vector" d="M79.46 52.07C79.64 52.16 79.87 52.15 80.03 52.01L80.04 52.02C80.52 51.59 81.39 50.83 81.88 50.42C82.07 50.26 82.04 50 81.88 49.79C81.45 49.18 80.98 48.69 80.98 47.56L80.98 43.82C80.98 43.69 80.98 43.56 80.98 43.44C80.99 42 81 40.69 79.92 39.69C79 38.81 77.47 38.5 76.31 38.5C74.02 38.5 71.47 39.35 70.94 42.17C70.88 42.47 71.1 42.63 71.3 42.67L73.63 42.92C73.84 42.91 74 42.7 74.04 42.48C74.24 41.51 75.06 41.04 75.97 41.04C76.46 41.04 77.03 41.22 77.32 41.67C77.62 42.11 77.62 42.7 77.61 43.23C77.61 43.29 77.61 43.35 77.61 43.4L77.61 43.72C76.22 43.87 74.4 43.97 73.1 44.55C71.59 45.2 70.54 46.52 70.54 48.47C70.54 50.97 72.11 52.21 74.13 52.21C75.84 52.21 76.77 51.81 78.09 50.47C78.52 51.1 78.67 51.41 79.46 52.07ZM111.5 52.01C111.34 52.15 111.11 52.16 110.94 52.07C110.14 51.41 109.99 51.1 109.56 50.47C108.24 51.81 107.31 52.21 105.6 52.21C103.58 52.21 102.01 50.97 102.01 48.47C102.01 46.52 103.06 45.2 104.57 44.55C105.87 43.97 107.69 43.87 109.08 43.72L109.08 43.4C109.08 43.35 109.08 43.29 109.08 43.23C109.09 42.7 109.09 42.11 108.79 41.67C108.5 41.22 107.94 41.04 107.44 41.04C106.53 41.04 105.71 41.51 105.51 42.48C105.47 42.7 105.31 42.91 105.09 42.92L102.77 42.67C102.57 42.63 102.35 42.47 102.41 42.17C102.94 39.35 105.5 38.5 107.78 38.5C108.95 38.5 110.47 38.81 111.39 39.69C112.47 40.69 112.46 42 112.45 43.44C112.45 43.56 112.45 43.69 112.45 43.82L112.45 47.56C112.45 48.69 112.92 49.18 113.36 49.79C113.51 50 113.54 50.26 113.35 50.42C112.86 50.83 111.99 51.59 111.51 52.02L111.5 52.01ZM84.19 52.04L86.59 52.04C86.84 52.04 87.05 51.85 87.05 51.6L87.05 45.07C87.05 45.02 87.05 44.97 87.05 44.91C87.05 43.51 87.04 41.67 88.71 41.67C90.24 41.67 90.21 43.3 90.19 44.63C90.19 44.78 90.19 44.93 90.19 45.07L90.19 51.6C90.19 51.84 90.38 52.03 90.62 52.04L93.02 52.04C93.28 52.04 93.48 51.85 93.48 51.6L93.48 45.07C93.48 45.01 93.48 44.96 93.48 44.9C93.48 44.21 93.48 43.28 93.71 42.71C93.95 42.09 94.56 41.7 95.14 41.7C95.84 41.7 96.37 41.93 96.55 42.76C96.64 43.16 96.63 44.07 96.62 44.69C96.62 44.84 96.62 44.97 96.62 45.07L96.62 51.6C96.62 51.84 96.81 52.03 97.05 52.04L99.45 52.04C99.71 52.04 99.91 51.85 99.91 51.6L99.91 43.82C99.91 43.63 99.92 43.44 99.92 43.24C99.94 42.08 99.96 40.85 99.31 39.96C98.64 39.03 97.54 38.61 96.53 38.61C95.12 38.61 93.8 39.34 93.22 40.9C92.54 39.34 91.6 38.61 90.1 38.61C88.62 38.61 87.52 39.34 86.94 40.9L86.89 40.9L86.89 39.29C86.88 39.06 86.69 38.88 86.46 38.87L84.22 38.87C83.96 38.87 83.76 39.07 83.76 39.32L83.76 51.64C83.78 51.86 83.96 52.03 84.19 52.04ZM130.96 38.61C134.52 38.61 136.45 41.67 136.45 45.56C136.45 49.32 134.32 52.3 130.96 52.3C127.46 52.3 125.56 49.24 125.56 45.43C125.56 41.59 127.48 38.61 130.96 38.61ZM138.68 52.04L141.07 52.04C141.32 52.04 141.53 51.85 141.53 51.6L141.53 44.96C141.53 44.13 141.58 43.38 141.92 42.63C142.18 42.04 142.72 41.65 143.31 41.65C144.84 41.65 144.82 43.32 144.81 44.64C144.81 44.75 144.81 44.86 144.81 44.96L144.81 51.66C144.83 51.87 145.01 52.03 145.23 52.04L147.64 52.04C147.88 52.04 148.08 51.87 148.1 51.66L148.1 43.9C148.1 42.71 148.1 41.05 147.47 40.07C146.8 39 145.75 38.61 144.67 38.61C143.02 38.61 142.07 39.42 141.4 41.1L141.36 41.1L141.36 39.22C141.31 39.03 141.14 38.88 140.93 38.87L138.7 38.87C138.46 38.87 138.26 39.05 138.24 39.28L138.24 51.6C138.24 51.84 138.44 52.03 138.68 52.04ZM115.37 41.05L115.37 39.29C115.37 39.02 115.57 38.84 115.82 38.84L123.71 38.84C123.96 38.84 124.16 39.02 124.16 39.29L124.16 40.79C124.16 41.05 123.95 41.38 123.57 41.9L119.48 47.74C121 47.7 122.6 47.93 123.98 48.71C124.29 48.88 124.38 49.14 124.4 49.39L124.4 51.27C124.4 51.53 124.12 51.83 123.82 51.67C121.39 50.4 118.17 50.26 115.48 51.69C115.21 51.84 114.92 51.54 114.92 51.28L114.92 49.5C114.92 49.21 114.93 48.72 115.21 48.28L119.95 41.49L115.83 41.49C115.57 41.49 115.37 41.31 115.37 41.05ZM130.98 41.13C129.21 41.13 129.1 43.54 129.1 45.04L129.1 45.1C129.1 46.62 129.1 49.76 130.96 49.76C132.82 49.76 132.91 47.17 132.91 45.59C132.91 44.55 132.86 43.31 132.55 42.32C132.28 41.46 131.74 41.13 130.98 41.13ZM77.61 46.29C77.61 46.24 77.61 46.2 77.61 46.16L77.61 45.64C75.87 45.64 74.04 46.01 74.04 48.06C74.04 49.09 74.58 49.8 75.5 49.8C76.17 49.8 76.78 49.38 77.16 48.71C77.61 47.91 77.61 47.17 77.61 46.29ZM109.08 46.16C109.08 46.2 109.08 46.24 109.08 46.29C109.08 47.17 109.08 47.91 108.63 48.71C108.25 49.38 107.64 49.8 106.97 49.8C106.05 49.8 105.51 49.09 105.51 48.06C105.51 46.01 107.34 45.64 109.08 45.64L109.08 46.16Z" fill="#4C4C4D" fill-opacity="1.000000" fill-rule="evenodd"/>
		</g>
	</g>
</svg>
